# xmcd
#
# Track frame offsets: 
#        150
#        15302
#        30360
#        43902
#        53012
#        68252
#        82250
#        94452
#        108717
#        121552
#        135297
#        150452
#        163077
#        189780
#
# Disc length: 2666 seconds
#
# Revision: 0
# Processed by: cddbd v1.5.2PL0 Copyright (c) Steve Scherf et al.
# Submitted via: ExactAudioCopy v0.95b2
#
DISCID=a10a680e
DTITLE=The Delfonics - Love Songs
DYEAR=2005
DGENRE=R&B
TTITLE0=Somebody Loves You
TTITLE1=La-La Means I Love You
TTITLE2=Can You Remember
TTITLE3=Ready or Not Here I Come (Can't Hide From Love)
TTITLE4=Didn't I (Blow Your Mind This Time)
TTITLE5=Try To Make A Fool Of Me
TTITLE6=Everytime I See My Baby
TTITLE7=Over and Over
TTITLE8=When You Get Right Down To It
TTITLE9=Break You Promise
TTITLE10=Hey! Love
TTITLE11=I'm Sorry
TTITLE12=I Gave To You
TTITLE13=Hot Dog (I Love You So)
EXTD=
EXTT0=
EXTT1=
EXTT2=
EXTT3=
EXTT4=
EXTT5=
EXTT6=
EXTT7=
EXTT8=
EXTT9=
EXTT10=
EXTT11=
EXTT12=
EXTT13=
PLAYORDER=
